<svg width="24" height="24" viewBox="0 0 24 24" fill="none" xmlns="http://www.w3.org/2000/svg">
<path fill-rule="evenodd" clip-rule="evenodd" d="M12.0001 1.25C10.1937 1.25 8.47184 2.01587 7.21026 3.36156C5.95021 4.70561 5.25005 6.51876 5.25005 8.4C5.25005 12.0306 4.52142 14.3109 3.8323 15.6585C3.48701 16.3338 3.14835 16.7814 2.90804 17.052C2.7877 17.1875 2.69148 17.2792 2.63069 17.3332C2.60028 17.3602 2.57869 17.3779 2.56735 17.3869L2.55863 17.3937C2.29755 17.5837 2.18718 17.9199 2.28559 18.2281C2.38485 18.539 2.67373 18.75 3.00005 18.75H21.0001C21.3264 18.75 21.6153 18.539 21.7145 18.2281C21.8129 17.9199 21.7026 17.5837 21.4415 17.3937L21.4328 17.3869C21.4214 17.3779 21.3998 17.3602 21.3694 17.3332C21.3086 17.2792 21.2124 17.1875 21.0921 17.052C20.8518 16.7814 20.5131 16.3338 20.1678 15.6585C19.4787 14.3109 18.7501 12.0306 18.7501 8.4C18.7501 6.51876 18.0499 4.70561 16.7898 3.36156C15.5283 2.01587 13.8065 1.25 12.0001 1.25ZM18.8323 16.3415C19.01 16.689 19.189 16.9905 19.3612 17.25H4.63891C4.81108 16.9905 4.99009 16.689 5.16781 16.3415C5.97869 14.7558 6.75005 12.2361 6.75005 8.4C6.75005 6.88647 7.31417 5.44389 8.30457 4.38747C9.29342 3.33269 10.6239 2.75 12.0001 2.75C13.3762 2.75 14.7067 3.33269 15.6955 4.38747C16.6859 5.44389 17.2501 6.88647 17.2501 8.4C17.2501 12.2361 18.0214 14.7558 18.8323 16.3415ZM10.9186 20.6237C10.7108 20.2654 10.2519 20.1434 9.89357 20.3513C9.53528 20.5591 9.41331 21.018 9.62115 21.3763C9.86289 21.7931 10.2099 22.139 10.6273 22.3794C11.0448 22.6199 11.5181 22.7465 11.9999 22.7465C12.4817 22.7465 12.955 22.6199 13.3725 22.3794C13.7899 22.139 14.1369 21.7931 14.3786 21.3763C14.5865 21.018 14.4645 20.5591 14.1062 20.3513C13.7479 20.1434 13.289 20.2654 13.0811 20.6237C12.9713 20.8131 12.8135 20.9703 12.6238 21.0796C12.434 21.1889 12.2189 21.2465 11.9999 21.2465C11.7809 21.2465 11.5658 21.1889 11.376 21.0796C11.1862 20.9703 11.0285 20.8131 10.9186 20.6237Z" fill="black"/>
</svg>
