<svg width="24" height="24" viewBox="0 0 24 24" fill="none" xmlns="http://www.w3.org/2000/svg">
<path fill-rule="evenodd" clip-rule="evenodd" d="M2.75 12C2.75 6.89137 6.89137 2.75 12 2.75C17.1086 2.75 21.25 6.89137 21.25 12C21.25 17.1086 17.1086 21.25 12 21.25C10.3139 21.25 8.73533 20.7996 7.37554 20.013C7.2206 19.9233 7.0387 19.8921 6.86272 19.9248L3.43742 20.5626L4.07515 17.1373C4.10792 16.9613 4.07666 16.7794 3.98703 16.6245C3.20043 15.2647 2.75 13.6861 2.75 12ZM12 1.25C6.06294 1.25 1.25 6.06294 1.25 12C1.25 13.8563 1.72113 15.6046 2.55076 17.1298L1.76267 21.3627C1.71742 21.6058 1.79485 21.8555 1.96967 22.0303C2.14449 22.2051 2.39423 22.2826 2.63728 22.2373L6.87016 21.4492C8.39536 22.2789 10.1437 22.75 12 22.75C17.9371 22.75 22.75 17.9371 22.75 12C22.75 6.06294 17.9371 1.25 12 1.25ZM10.3446 7.60313C10.0001 7.89541 9.75 8.34102 9.75 9.00001C9.75 9.41422 9.41421 9.75001 9 9.75001C8.58579 9.75001 8.25 9.41422 8.25 9.00001C8.25 7.90898 8.68736 7.04209 9.37414 6.45937C10.0446 5.89048 10.9119 5.625 11.75 5.625C12.5882 5.625 13.4554 5.89049 14.1259 6.45938C14.8126 7.0421 15.25 7.90899 15.25 9.00001C15.25 9.76589 15.0538 10.3495 14.7334 10.8301C14.4642 11.234 14.1143 11.5462 13.839 11.7919L13.839 11.7919L13.8385 11.7923L13.8366 11.794C13.8074 11.8201 13.779 11.8454 13.7517 11.87C13.4445 12.1464 13.213 12.3743 13.0433 12.6741C12.881 12.9609 12.75 13.3616 12.75 13.9999C12.75 14.4142 12.4142 14.7499 12 14.7499C11.5858 14.7499 11.25 14.4142 11.25 13.9999C11.25 13.1383 11.4315 12.4765 11.7379 11.9352C12.037 11.4069 12.4305 11.041 12.7483 10.755L12.8205 10.6901C13.1207 10.4204 13.3276 10.2347 13.4853 9.99803C13.6337 9.77553 13.75 9.48414 13.75 9.00001C13.75 8.34103 13.4999 7.89542 13.1554 7.60314C12.7946 7.29702 12.2868 7.125 11.75 7.125C11.2131 7.125 10.7054 7.29702 10.3446 7.60313ZM12.5117 17.4414C12.8196 17.7185 12.8446 18.1927 12.5675 18.5006L12.5575 18.5117C12.2804 18.8196 11.8062 18.8446 11.4983 18.5675C11.1904 18.2904 11.1654 17.8162 11.4425 17.5083L11.4525 17.4972C11.7296 17.1893 12.2038 17.1643 12.5117 17.4414Z" fill="black"/>
</svg>
