<svg width="24" height="24" viewBox="0 0 24 24" fill="none" xmlns="http://www.w3.org/2000/svg">
<path fill-rule="evenodd" clip-rule="evenodd" d="M3.75 13.3149C3.75 8.75859 7.44365 5.06494 12 5.06494C16.5563 5.06494 20.25 8.75859 20.25 13.3149C20.25 15.5933 19.3274 17.6548 17.8336 19.1486C17.5407 19.4415 17.5407 19.9163 17.8336 20.2092C18.1265 20.5021 18.6014 20.5021 18.8943 20.2092C20.6579 18.4457 21.75 16.0071 21.75 13.3149C21.75 7.93016 17.3848 3.56494 12 3.56494C6.61522 3.56494 2.25 7.93016 2.25 13.3149C2.25 16.0105 3.34488 18.4518 5.11237 20.2159C5.40554 20.5085 5.88042 20.508 6.17303 20.2149C6.46564 19.9217 6.46519 19.4468 6.17201 19.1542C4.67491 17.66 3.75 15.5962 3.75 13.3149ZM16.5303 8.78461C16.8232 9.0775 16.8232 9.55238 16.5303 9.84527L14.4015 11.9741C14.6235 12.3708 14.75 12.8281 14.75 13.3149C14.75 14.8337 13.5188 16.0649 12 16.0649C10.4812 16.0649 9.25 14.8337 9.25 13.3149C9.25 11.7962 10.4812 10.5649 12 10.5649C12.4869 10.5649 12.9442 10.6915 13.3409 10.9134L15.4697 8.78461C15.7626 8.49172 16.2374 8.49172 16.5303 8.78461ZM12 12.0649C11.3096 12.0649 10.75 12.6246 10.75 13.3149C10.75 14.0053 11.3096 14.5649 12 14.5649C12.6904 14.5649 13.25 14.0053 13.25 13.3149C13.25 12.6246 12.6904 12.0649 12 12.0649Z" fill="black"/>
</svg>
