<svg width="34" height="34" viewBox="0 0 34 34" fill="none" xmlns="http://www.w3.org/2000/svg">
<g clip-path="url(#clip0_4173_6568)">
<path fill-rule="evenodd" clip-rule="evenodd" d="M7.75 17C7.75 11.8914 11.8914 7.75 17 7.75C22.1086 7.75 26.25 11.8914 26.25 17C26.25 22.1086 22.1086 26.25 17 26.25C15.3139 26.25 13.7353 25.7996 12.3755 25.013C12.2206 24.9233 12.0387 24.8921 11.8627 24.9248L8.43742 25.5626L9.07515 22.1373C9.10792 21.9613 9.07666 21.7794 8.98703 21.6245C8.20043 20.2647 7.75 18.6861 7.75 17ZM17 6.25C11.0629 6.25 6.25 11.0629 6.25 17C6.25 18.8563 6.72113 20.6046 7.55076 22.1298L6.76267 26.3627C6.71742 26.6058 6.79485 26.8555 6.96967 27.0303C7.14449 27.2051 7.39423 27.2826 7.63728 27.2373L11.8702 26.4492C13.3954 27.2789 15.1437 27.75 17 27.75C22.9371 27.75 27.75 22.9371 27.75 17C27.75 11.0629 22.9371 6.25 17 6.25ZM15.3446 12.6031C15.0001 12.8954 14.75 13.341 14.75 14C14.75 14.4142 14.4142 14.75 14 14.75C13.5858 14.75 13.25 14.4142 13.25 14C13.25 12.909 13.6874 12.0421 14.3741 11.4594C15.0446 10.8905 15.9119 10.625 16.75 10.625C17.5882 10.625 18.4554 10.8905 19.1259 11.4594C19.8126 12.0421 20.25 12.909 20.25 14C20.25 14.7659 20.0538 15.3495 19.7334 15.8301C19.4642 16.234 19.1143 16.5462 18.839 16.7919L18.839 16.7919L18.8385 16.7923L18.8366 16.794C18.8074 16.8201 18.779 16.8454 18.7517 16.87C18.4445 17.1464 18.213 17.3743 18.0433 17.6741C17.881 17.9609 17.75 18.3616 17.75 18.9999C17.75 19.4142 17.4142 19.7499 17 19.7499C16.5858 19.7499 16.25 19.4142 16.25 18.9999C16.25 18.1383 16.4315 17.4765 16.7379 16.9352C17.037 16.4069 17.4305 16.041 17.7483 15.755L17.8205 15.6901C18.1207 15.4204 18.3276 15.2347 18.4853 14.998C18.6337 14.7755 18.75 14.4841 18.75 14C18.75 13.341 18.4999 12.8954 18.1554 12.6031C17.7946 12.297 17.2868 12.125 16.75 12.125C16.2131 12.125 15.7054 12.297 15.3446 12.6031ZM17.5117 22.4414C17.8196 22.7185 17.8446 23.1927 17.5675 23.5006L17.5575 23.5117C17.2804 23.8196 16.8062 23.8446 16.4983 23.5675C16.1904 23.2904 16.1654 22.8162 16.4425 22.5083L16.4525 22.4972C16.7296 22.1893 17.2038 22.1643 17.5117 22.4414Z" fill="black"/>
</g>
<defs>
<clipPath id="clip0_4173_6568">
<rect width="24" height="24" fill="white" transform="translate(5 5)"/>
</clipPath>
</defs>
</svg>
