<svg width="20" height="22" viewBox="0 0 20 22" fill="none" xmlns="http://www.w3.org/2000/svg">
<path fill-rule="evenodd" clip-rule="evenodd" d="M10.0001 0.25C8.19365 0.25 6.47184 1.01587 5.21026 2.36156C3.95021 3.70561 3.25005 5.51876 3.25005 7.4C3.25005 11.0306 2.52142 13.3109 1.8323 14.6585C1.48701 15.3338 1.14835 15.7814 0.908043 16.052C0.787698 16.1875 0.691478 16.2792 0.630686 16.3332C0.600277 16.3602 0.578694 16.3779 0.567349 16.3869L0.558625 16.3937C0.297551 16.5837 0.187179 16.9199 0.285591 17.2281C0.384851 17.539 0.673727 17.75 1.00005 17.75H19.0001C19.3264 17.75 19.6153 17.539 19.7145 17.2281C19.8129 16.9199 19.7026 16.5837 19.4415 16.3937L19.4328 16.3869C19.4214 16.3779 19.3998 16.3602 19.3694 16.3332C19.3086 16.2792 19.2124 16.1875 19.0921 16.052C18.8518 15.7814 18.5131 15.3338 18.1678 14.6585C17.4787 13.3109 16.7501 11.0306 16.7501 7.4C16.7501 5.51876 16.0499 3.70561 14.7898 2.36156C13.5283 1.01587 11.8065 0.25 10.0001 0.25ZM16.8323 15.3415C17.01 15.689 17.189 15.9905 17.3612 16.25H2.63891C2.81108 15.9905 2.99009 15.689 3.16781 15.3415C3.97869 13.7558 4.75005 11.2361 4.75005 7.4C4.75005 5.88647 5.31417 4.44389 6.30457 3.38747C7.29342 2.33269 8.62386 1.75 10.0001 1.75C11.3762 1.75 12.7067 2.33269 13.6955 3.38747C14.6859 4.44389 15.2501 5.88647 15.2501 7.4C15.2501 11.2361 16.0214 13.7558 16.8323 15.3415ZM8.91865 19.6237C8.71081 19.2654 8.25187 19.1434 7.89357 19.3513C7.53528 19.5591 7.41331 20.018 7.62115 20.3763C7.86289 20.7931 8.20986 21.139 8.62734 21.3794C9.04481 21.6199 9.51813 21.7465 9.9999 21.7465C10.4817 21.7465 10.955 21.6199 11.3725 21.3794C11.7899 21.139 12.1369 20.7931 12.3786 20.3763C12.5865 20.018 12.4645 19.5591 12.1062 19.3513C11.7479 19.1434 11.289 19.2654 11.0811 19.6237C10.9713 19.8131 10.8135 19.9703 10.6238 20.0796C10.434 20.1889 10.2189 20.2465 9.9999 20.2465C9.78091 20.2465 9.56577 20.1889 9.37601 20.0796C9.18625 19.9703 9.02853 19.8131 8.91865 19.6237Z" fill="black"/>
</svg>
