<svg width="20" height="18" viewBox="0 0 20 18" fill="none" xmlns="http://www.w3.org/2000/svg">
<path fill-rule="evenodd" clip-rule="evenodd" d="M1.75 10.3149C1.75 5.75859 5.44365 2.06494 10 2.06494C14.5563 2.06494 18.25 5.75859 18.25 10.3149C18.25 12.5933 17.3274 14.6548 15.8336 16.1486C15.5407 16.4415 15.5407 16.9163 15.8336 17.2092C16.1265 17.5021 16.6014 17.5021 16.8943 17.2092C18.6579 15.4457 19.75 13.0071 19.75 10.3149C19.75 4.93016 15.3848 0.564941 10 0.564941C4.61522 0.564941 0.25 4.93016 0.25 10.3149C0.25 13.0105 1.34488 15.4518 3.11237 17.2159C3.40554 17.5085 3.88042 17.508 4.17303 17.2149C4.46564 16.9217 4.46519 16.4468 4.17201 16.1542C2.67491 14.66 1.75 12.5962 1.75 10.3149ZM14.5303 5.78461C14.8232 6.0775 14.8232 6.55238 14.5303 6.84527L12.4015 8.97408C12.6235 9.37076 12.75 9.82808 12.75 10.3149C12.75 11.8337 11.5188 13.0649 10 13.0649C8.48122 13.0649 7.25 11.8337 7.25 10.3149C7.25 8.79616 8.48122 7.56494 10 7.56494C10.4869 7.56494 10.9442 7.69146 11.3409 7.91342L13.4697 5.78461C13.7626 5.49172 14.2374 5.49172 14.5303 5.78461ZM10 9.06494C9.30964 9.06494 8.75 9.62459 8.75 10.3149C8.75 11.0053 9.30964 11.5649 10 11.5649C10.6904 11.5649 11.25 11.0053 11.25 10.3149C11.25 9.62459 10.6904 9.06494 10 9.06494Z" fill="#4E59FF"/>
</svg>
